<?xml version="1.0" standalone="no"?>
<!DOCTYPE svg PUBLIC "-//W3C//DTD SVG 20010904//EN"
 "http://www.w3.org/TR/2001/REC-SVG-20010904/DTD/svg10.dtd">
<svg version="1.0" xmlns="http://www.w3.org/2000/svg"
 width="544.000000pt" height="544.000000pt" viewBox="0 0 544.000000 544.000000"
 preserveAspectRatio="xMidYMid meet">

<g transform="translate(0.000000,544.000000) scale(0.100000,-0.100000)"
fill="#000000" stroke="none">
<path d="M215 5409 c-7 -31 -2 -44 18 -44 7 -1 11 -6 10 -13 -2 -6 4 -9 12 -6
8 4 15 1 15 -6 0 -7 7 -10 15 -6 8 3 15 1 15 -5 0 -6 4 -8 9 -5 5 3 11 -3 14
-14 3 -11 13 -23 24 -27 25 -9 73 -60 65 -68 -4 -4 -2 -5 3 -4 14 4 95 -49 95
-62 0 -7 10 -9 24 -5 14 3 28 2 31 -4 4 -6 23 -7 47 -3 30 4 39 3 34 -5 -5 -9
19 -12 89 -12 110 0 124 10 82 60 -19 22 -24 38 -21 62 3 21 2 28 -4 20 -6 -9
-12 0 -21 30 -7 24 -21 62 -32 85 -10 24 -19 47 -19 53 0 6 -88 10 -249 10
l-249 0 -7 -31z"/>
<path d="M800 5430 c0 -5 4 -10 8 -10 4 0 31 -24 59 -52 174 -176 217 -218
234 -223 11 -4 19 -11 19 -16 0 -5 6 -9 14 -9 8 0 23 -13 33 -30 11 -19 23
-28 33 -25 9 3 26 -5 39 -19 13 -13 36 -30 52 -36 15 -7 31 -21 34 -31 4 -10
10 -19 15 -19 12 0 100 -88 100 -100 0 -5 7 -10 15 -10 9 0 21 -11 27 -25 16
-35 39 -33 28 3 -5 15 -14 61 -20 102 -5 41 -12 89 -15 105 -2 17 -8 42 -14
57 -5 14 -7 28 -4 32 3 3 2 13 -2 23 -13 31 -15 53 -5 53 6 0 8 18 4 48 -11
88 -12 112 -3 112 5 0 9 18 9 40 l0 40 -330 0 c-213 0 -330 -4 -330 -10z"/>
<path d="M1670 5431 c0 -5 11 -12 25 -15 13 -3 30 -16 36 -28 15 -28 24 -36
71 -68 21 -14 38 -32 38 -41 0 -9 9 -19 20 -22 11 -3 24 -17 30 -31 5 -14 14
-26 19 -26 5 0 11 -8 15 -17 11 -36 49 -82 68 -83 6 0 16 81 23 200 2 36 6 82
10 103 l7 37 -181 0 c-99 0 -181 -4 -181 -9z"/>
<path d="M2204 5408 c16 -81 39 -139 50 -128 3 3 8 40 12 83 l7 77 -38 0 c-37
0 -37 -1 -31 -32z"/>
<path d="M2938 5402 c-17 -39 -18 -116 -1 -133 6 -6 5 -32 -3 -72 -15 -77 -23
-178 -13 -172 13 9 32 140 34 245 1 58 7 120 13 138 15 46 -8 42 -30 -6z"/>
<path d="M3080 5427 c-31 -25 -41 -61 -47 -159 -5 -76 -3 -99 5 -94 7 4 13 37
14 79 1 66 2 63 8 -33 8 -116 5 -132 -19 -128 -13 3 -16 -8 -17 -67 -1 -38 3
-83 8 -100 6 -16 11 -42 12 -58 2 -15 14 -39 27 -54 20 -22 21 -25 5 -19 -15
5 -17 2 -13 -14 3 -11 1 -22 -4 -25 -4 -3 -6 -11 -4 -18 3 -7 6 -33 9 -58 3
-43 2 -46 -27 -57 -29 -11 -34 -9 -65 21 -81 78 -97 173 -56 337 l6 25 -21
-25 c-11 -14 -21 -38 -21 -55 -1 -16 -7 -52 -14 -80 -12 -44 -17 -50 -42 -53
-40 -5 -50 -15 -64 -68 -9 -32 -24 -55 -52 -76 -34 -28 -38 -36 -38 -75 l0
-45 -32 7 c-18 4 -42 9 -53 11 -11 2 -25 1 -31 -3 -6 -5 -27 -55 -46 -113 -50
-146 -58 -167 -97 -235 -42 -73 -44 -117 -7 -199 14 -32 26 -62 26 -66 0 -4
-25 -10 -56 -12 -64 -5 -72 -14 -72 -73 1 -59 -31 -100 -91 -115 -80 -20 -91
-32 -91 -101 0 -56 -1 -59 -19 -49 -35 18 -72 11 -134 -27 -71 -43 -77 -49
-77 -80 0 -14 -6 -23 -16 -23 -25 0 -371 355 -379 389 -7 34 -26 52 -86 84
-43 24 -44 25 -41 69 l3 46 -55 25 c-63 29 -97 73 -91 119 4 30 -16 58 -41 58
-19 0 -18 4 17 71 32 59 32 60 14 92 -15 28 -23 33 -54 33 -46 1 -171 23 -193
35 -10 5 -24 9 -33 9 -13 0 -112 -55 -125 -69 -5 -6 -62 -10 -133 -10 -24 0
-45 -8 -59 -21 -13 -11 -35 -20 -54 -20 -18 0 -36 -5 -39 -10 -4 -6 -24 -19
-46 -30 -32 -17 -39 -26 -39 -50 0 -17 -4 -30 -10 -30 -5 0 -18 -17 -29 -38
-11 -21 -37 -52 -58 -67 -49 -37 -54 -45 -42 -67 12 -22 -7 -70 -45 -113 -21
-24 -26 -40 -26 -81 0 -33 -5 -56 -14 -64 -20 -16 -14 -84 12 -140 12 -25 22
-52 22 -61 0 -27 28 -73 79 -132 49 -56 101 -145 101 -173 0 -8 9 -27 20 -42
23 -32 50 -139 50 -200 0 -31 6 -50 24 -68 13 -15 34 -46 46 -71 20 -39 22
-56 17 -119 -4 -59 -2 -77 10 -89 12 -12 14 -28 9 -68 -6 -51 -6 -53 29 -80
29 -23 35 -34 35 -68 0 -56 -24 -99 -230 -409 l-122 -184 6 -71 c11 -113 12
-125 21 -133 4 -4 4 3 1 16 -4 12 -4 22 1 22 9 0 33 -48 33 -66 0 -7 4 -14 9
-16 10 -3 84 -159 78 -164 -6 -7 -178 -6 -184 0 -4 3 2 6 13 6 15 0 16 2 5 9
-11 7 -8 14 13 32 28 24 33 44 14 52 -7 3 -1 6 14 6 20 1 26 5 22 16 -4 8 -1
22 5 29 8 10 9 16 1 21 -6 3 -8 10 -5 14 2 5 -6 7 -20 6 -17 -2 -22 1 -18 11
5 14 -65 49 -102 49 -11 0 -22 2 -25 5 -9 9 -76 30 -97 30 -12 0 -23 7 -27 15
-3 8 -12 12 -20 9 -8 -3 -21 4 -30 17 -8 13 -18 20 -21 17 -3 -3 -4 -113 -3
-246 l3 -241 55 34 c30 19 82 43 115 54 72 23 185 35 203 23 24 -16 8 -46 -35
-67 l-42 -20 73 3 73 4 6 -32 c8 -37 -2 -59 -43 -93 -16 -14 -30 -29 -30 -32
0 -28 -121 -86 -205 -99 -16 -2 -49 -7 -73 -11 -40 -6 -72 4 -72 24 0 7 52 32
108 52 18 6 29 16 25 22 -4 6 -1 7 6 3 15 -10 71 12 68 27 -1 6 9 16 23 24 15
7 19 13 9 13 -8 0 -20 -5 -26 -11 -21 -21 -9 15 14 45 12 15 19 34 16 42 -6
16 -40 13 -181 -18 l-92 -20 0 -204 c1 -163 4 -204 14 -204 8 0 19 7 26 15 7
8 19 15 26 15 8 0 14 4 14 8 0 9 94 67 134 82 26 10 28 9 23 -10 -5 -19 -2
-20 41 -14 42 5 50 3 71 -20 17 -18 20 -26 10 -26 -8 0 1 -8 19 -16 38 -19 43
-38 6 -24 -33 13 -64 13 -64 0 0 -5 5 -10 12 -10 18 0 128 -74 127 -85 -3 -25
2 -34 22 -40 11 -4 18 -9 15 -12 -3 -4 -1 -12 5 -19 18 -22 -17 -29 -46 -10
-26 17 -54 20 -104 10 -47 -10 -37 -22 13 -17 24 3 52 0 62 -6 17 -9 15 -10
-13 -11 -17 0 -35 -4 -38 -10 -3 -5 -23 -10 -43 -10 -62 0 -104 -18 -169 -70
-67 -54 -79 -60 -63 -31 7 14 7 22 0 26 -8 5 -7 11 1 21 14 17 9 17 -26 4 -24
-9 -26 -8 -20 12 6 16 4 20 -8 15 -14 -5 -15 -2 -6 21 6 15 21 40 33 57 37 49
38 53 17 65 -17 8 -26 5 -56 -21 l-35 -31 0 -384 0 -383 185 -1 c140 0 185 3
185 13 0 6 -10 32 -21 56 -19 43 -19 45 -2 55 10 6 23 12 28 12 24 4 55 17 55
24 0 14 46 60 61 60 9 0 25 10 37 23 l22 23 -23 22 c-27 25 -45 22 -84 -14
-21 -19 -22 -24 -8 -31 14 -8 13 -11 -5 -28 -11 -10 -20 -14 -20 -9 0 5 -22 9
-49 10 -48 0 -86 18 -76 34 3 5 -1 10 -7 13 -36 11 76 82 147 93 25 3 42 11
39 16 -9 14 -65 1 -141 -33 -36 -16 -68 -27 -71 -24 -11 11 -2 69 17 111 12
24 21 48 21 54 0 40 84 103 154 116 21 4 47 15 56 24 10 10 39 21 66 25 26 3
66 17 89 31 l43 25 34 -21 c43 -25 66 -69 46 -85 -101 -76 -138 -109 -138
-122 0 -10 6 -13 16 -9 13 5 14 4 6 -7 -7 -8 -9 -17 -5 -20 3 -4 0 -13 -6 -21
-18 -21 -10 -66 14 -82 18 -12 25 -11 59 12 29 20 46 25 72 21 24 -4 32 -2 28
5 -5 7 0 9 14 6 12 -4 22 -2 22 3 0 22 29 6 44 -25 28 -60 38 -135 33 -248
l-5 -108 113 0 c81 0 115 4 119 13 5 10 7 10 12 0 12 -27 24 -11 24 35 0 57
-41 184 -62 191 -18 7 -98 105 -98 121 0 5 -4 10 -9 10 -5 0 -19 19 -31 42
-12 24 -26 45 -30 48 -15 10 -69 136 -114 265 -24 72 -54 156 -66 189 -12 34
-20 76 -18 100 3 36 6 41 31 44 15 2 27 7 27 12 0 4 19 6 42 2 38 -5 81 -22
273 -112 33 -15 78 -36 100 -46 22 -10 78 -57 125 -105 77 -78 170 -179 170
-184 0 -1 19 -22 42 -46 54 -56 78 -87 78 -99 0 -6 8 -18 18 -28 10 -10 24
-40 32 -66 7 -26 18 -53 24 -59 36 -39 66 -97 66 -128 0 -28 10 -45 50 -88 27
-29 66 -66 86 -82 l37 -29 1733 0 1734 0 0 589 0 589 -22 7 c-13 4 -25 8 -28
10 -3 1 -13 5 -24 10 -10 4 -37 29 -60 54 -53 60 -141 146 -202 198 -38 32
-48 47 -46 68 1 15 -5 36 -13 48 -10 14 -15 46 -15 97 0 89 -16 123 -48 103
-20 -12 -32 -8 -32 10 0 6 3 7 7 4 3 -4 11 -3 17 2 25 20 85 49 117 56 20 5
28 10 19 13 -9 3 4 11 30 18 55 15 155 51 195 70 17 7 47 20 68 28 34 14 37
18 37 55 0 23 -4 41 -10 41 -5 0 -10 -7 -10 -15 0 -8 -5 -15 -10 -15 -6 0 -15
-11 -20 -25 -5 -14 -15 -25 -22 -25 -7 0 -25 -7 -41 -14 -15 -8 -36 -13 -47
-11 -11 2 -20 1 -20 -3 0 -4 -23 -8 -50 -10 -68 -4 -78 18 -28 63 19 18 39 34
45 36 6 2 13 14 17 26 6 18 1 25 -26 39 -68 35 -156 109 -176 149 -27 51 -25
77 10 117 16 18 31 44 35 58 6 23 7 23 14 5 7 -19 8 -19 8 1 1 12 8 27 16 34
8 7 15 19 15 26 0 8 5 14 10 14 6 0 10 -4 10 -10 0 -5 5 -10 12 -10 6 0 29
-18 49 -40 21 -22 40 -40 43 -40 3 0 15 8 25 18 38 34 48 40 79 47 18 3 30 11
26 16 -3 5 6 9 20 9 l26 0 0 101 0 101 -67 82 c-37 44 -76 90 -86 101 -10 11
-37 45 -60 75 -23 30 -54 67 -69 82 -14 16 -48 54 -74 85 -89 107 -138 158
-244 252 -58 52 -122 110 -143 130 -41 39 -107 80 -233 142 -73 36 -92 41
-178 46 -53 3 -96 7 -96 9 0 2 16 25 35 50 37 48 75 123 75 146 0 8 4 18 10
24 13 13 16 82 5 93 -7 7 -10 -5 -11 -32 -2 -60 -14 -94 -59 -173 -45 -77
-172 -210 -201 -211 -27 0 -44 16 -44 42 0 12 -7 39 -16 60 -8 21 -13 44 -10
51 3 9 -2 14 -14 14 -13 0 -21 10 -26 33 -4 17 -7 35 -6 38 1 4 -8 31 -20 60
-11 30 -29 81 -41 114 -27 83 -59 165 -102 265 -21 47 -61 143 -91 214 -30 71
-79 170 -110 220 l-56 91 19 55 c13 41 31 67 68 102 27 25 66 62 85 81 19 19
49 41 67 51 18 9 44 31 58 50 14 19 38 37 53 41 49 11 121 68 133 103 16 49 4
99 -26 106 -14 4 -33 2 -42 -4 -10 -5 -47 -22 -83 -38 -65 -28 -124 -73 -228
-173 -29 -28 -55 -49 -57 -47 -2 2 9 24 26 48 17 25 41 65 55 90 14 25 33 59
44 75 10 17 22 42 25 58 7 25 5 27 -24 27 -41 0 -92 -55 -178 -192 -37 -59
-69 -105 -72 -102 -3 2 1 10 7 16 19 19 14 37 -8 31 -17 -5 -18 -2 -11 25 5
16 14 40 21 53 13 23 12 24 -7 7 -18 -17 -43 -24 -43 -14 0 20 33 143 41 151
17 17 9 25 -25 25 -46 0 -66 -9 -59 -26 3 -8 0 -14 -6 -14 -6 0 -11 -7 -11
-15 0 -9 -12 -43 -26 -77 -14 -33 -26 -75 -27 -92 -2 -17 -6 -37 -11 -44 -8
-14 -55 -12 -89 3 -16 7 -16 9 4 26 12 11 26 19 30 19 12 0 36 50 43 90 3 19
3 29 0 22 -14 -29 -21 2 -9 40 13 45 10 68 -7 68 -5 0 -7 -8 -3 -19 3 -10 -8
-47 -24 -85 -25 -55 -34 -66 -55 -66 -22 0 -24 4 -28 51 -2 31 2 59 9 68 22
29 16 51 -14 51 -16 0 -35 -6 -43 -13z m865 -68 c-2 -12 -15 -31 -29 -44 -32
-30 -127 -84 -154 -88 -12 -2 -45 -24 -73 -50 -28 -26 -59 -47 -68 -47 -9 0
-23 -6 -31 -12 -12 -11 -12 -10 -1 5 7 9 10 17 5 17 -5 0 -4 4 1 8 6 4 22 22
37 40 56 68 245 191 295 192 17 0 21 -5 18 -21z m-1076 -714 c12 -33 36 -91
53 -130 16 -38 36 -90 44 -114 8 -25 20 -54 28 -65 7 -12 16 -34 20 -51 4 -16
29 -75 56 -130 26 -55 53 -118 60 -140 32 -102 176 -380 352 -675 42 -71 88
-148 101 -172 13 -24 44 -79 69 -123 25 -44 69 -123 98 -175 29 -52 81 -138
115 -190 35 -52 83 -135 107 -185 103 -209 280 -533 322 -590 34 -45 43 -77
12 -42 -13 16 -32 38 -41 50 -9 12 -13 16 -10 10 3 -7 1 -13 -4 -13 -6 0 -11
7 -11 15 0 8 -9 15 -20 15 -11 0 -23 7 -26 15 -4 8 -11 15 -16 15 -5 0 2 -20
16 -44 26 -44 37 -138 18 -150 -5 -3 -28 16 -51 42 -96 105 -186 192 -199 192
-11 0 -13 -12 -10 -55 4 -47 2 -55 -13 -55 -10 0 -33 18 -52 41 -47 55 -252
363 -313 469 -26 47 -53 92 -60 100 -7 8 -51 92 -99 185 -48 94 -109 208 -135
255 -26 47 -72 133 -101 193 -37 75 -55 104 -62 95 -6 -9 -7 -4 -3 12 3 14 1
32 -5 40 -8 12 -9 10 -4 -7 4 -13 2 -23 -4 -23 -6 0 -15 15 -20 33 -5 17 -10
25 -10 17 -1 -8 13 -51 30 -95 17 -44 33 -89 36 -100 4 -11 12 -29 19 -40 7
-11 32 -67 57 -125 24 -58 54 -125 66 -150 12 -25 26 -61 31 -80 l10 -35 -30
32 c-17 18 -30 35 -30 38 0 4 -32 59 -71 123 -40 64 -78 129 -85 143 -8 14
-23 34 -34 44 -11 10 -20 21 -20 25 0 3 -25 44 -56 91 -30 46 -85 138 -122
204 -42 76 -68 113 -70 102 -5 -25 113 -254 222 -429 36 -59 66 -110 66 -113
0 -3 14 -24 30 -47 17 -22 30 -47 30 -54 0 -7 11 -26 25 -42 14 -17 25 -34 25
-39 0 -6 9 -18 19 -27 11 -10 27 -34 37 -54 9 -20 31 -56 49 -81 43 -60 135
-212 135 -223 0 -22 -59 35 -143 140 -50 64 -102 127 -113 141 -12 14 -61 82
-109 151 -49 69 -102 145 -119 168 -17 24 -35 51 -41 61 -5 9 -20 31 -32 48
-13 17 -23 36 -23 41 0 6 -3 12 -7 14 -5 2 -30 36 -57 76 -77 115 -70 90 20
-70 24 -43 44 -83 44 -89 0 -27 152 -320 210 -404 62 -91 200 -293 278 -407
60 -88 117 -207 105 -219 -14 -14 -131 102 -228 226 -43 55 -99 124 -124 153
-25 30 -46 60 -47 67 -3 23 -38 90 -80 155 -46 71 -134 219 -134 226 0 2 -22
41 -49 86 -83 141 -145 251 -283 503 -30 55 -80 145 -111 200 -51 91 -56 106
-59 168 -2 51 1 70 12 77 18 12 50 13 50 3 1 -13 89 -107 95 -102 5 6 -61 176
-75 194 -30 38 -13 154 31 217 42 60 51 59 69 -9 16 -60 26 -73 56 -73 14 0
25 -8 29 -20 3 -11 10 -20 14 -20 5 0 24 -35 42 -77 40 -91 146 -304 158 -316
5 -5 8 7 7 25 -1 18 -5 36 -11 40 -6 5 -6 8 2 8 14 0 -21 108 -59 185 -43 85
-177 512 -170 540 9 31 26 21 49 -30 10 -22 31 -59 47 -83 16 -23 44 -86 62
-140 39 -112 39 -83 0 63 -28 105 -51 304 -36 319 5 5 13 -9 19 -32 6 -22 26
-73 45 -113 l34 -74 -5 50 c-11 112 -8 261 6 279 13 15 15 15 26 -1 6 -10 22
-45 34 -78z m372 58 c7 -7 13 -25 14 -40 2 -15 6 -38 10 -49 5 -17 2 -23 -15
-27 -29 -7 -75 26 -91 65 -7 17 -17 27 -25 24 -13 -5 -28 20 -19 34 7 12 113
6 126 -7z m-2299 -316 c12 -4 15 -12 11 -23 -5 -13 3 -10 33 10 52 35 76 35
72 -1 -2 -21 -10 -29 -35 -35 -18 -5 -39 -18 -47 -29 -15 -23 -36 -18 -36 8 0
9 -6 13 -14 10 -21 -8 -28 26 -17 83 1 3 5 0 9 -6 4 -6 15 -13 24 -17z m224 3
c0 -24 -9 -25 -30 -4 -21 21 -20 24 7 24 16 0 23 -6 23 -20z m-276 -56 c11
-38 11 -43 -8 -62 -18 -18 -22 -19 -41 -6 -11 8 -24 13 -28 12 -4 -1 -25 9
-45 21 -38 23 -48 44 -27 57 8 4 7 9 -2 15 -10 6 -8 9 8 9 12 0 23 -5 25 -12
3 -9 17 -8 54 4 27 9 50 13 50 9 1 -3 7 -25 14 -47z m-142 -41 c12 -10 22 -27
24 -38 3 -18 -2 -20 -42 -17 -43 4 -44 3 -29 -15 21 -23 34 -63 20 -63 -5 0
-13 5 -16 10 -3 6 -16 10 -28 10 -14 0 -18 -3 -10 -8 8 -5 -4 -12 -32 -20 -46
-12 -61 -32 -25 -32 11 0 20 -4 20 -10 0 -5 -8 -10 -18 -10 -21 0 -79 -63 -63
-68 13 -4 15 -29 2 -34 -12 -4 -16 -47 -7 -79 4 -14 3 -41 -2 -60 -6 -19 -11
-26 -11 -16 -1 10 -9 17 -20 17 -28 0 -52 -71 -50 -145 1 -33 -3 -76 -8 -95
l-11 -35 -2 30 c-1 17 -2 33 -1 38 2 11 -14 8 -28 -5 -11 -11 -13 -10 -8 5 5
13 2 17 -11 15 -15 -3 -17 4 -14 48 4 63 -16 88 -49 58 -19 -17 -20 -17 -12 2
20 49 79 147 109 183 33 38 33 58 1 45 -20 -7 -29 32 -11 47 8 6 14 17 14 24
0 7 10 19 23 28 18 12 20 18 10 28 -19 19 -17 23 35 59 26 19 66 53 89 77 38
39 45 43 91 43 33 0 57 -6 70 -17z m382 -68 c35 -18 38 -35 9 -53 -15 -10 -24
-11 -32 -3 -19 19 -27 12 -27 -23 0 -19 -4 -38 -10 -41 -5 -3 -10 2 -10 12 0
11 -6 28 -14 39 -13 17 -18 17 -37 6 -25 -16 -43 -4 -33 22 7 19 77 55 107 56
10 0 31 -7 47 -15z m-275 -75 c-3 -5 -11 -10 -16 -10 -6 0 -7 5 -4 10 3 6 11
10 16 10 6 0 7 -4 4 -10z m105 -5 c0 -9 -9 -15 -21 -15 -47 0 -199 -179 -199
-233 0 -30 27 -40 62 -24 38 17 88 30 88 22 0 -3 -21 -15 -46 -26 -43 -21 -64
-43 -51 -55 3 -3 12 -2 19 2 20 13 32 11 39 -6 4 -11 10 -6 23 18 13 25 22 32
36 27 13 -4 22 1 30 15 28 53 54 -4 39 -88 -8 -46 -16 -62 -34 -72 -20 -11
-27 -10 -51 9 -27 21 -27 21 -48 2 -12 -11 -33 -22 -47 -26 -35 -9 -84 47 -94
107 -4 24 -13 52 -20 63 -25 41 -28 83 -6 118 33 54 83 94 141 112 30 9 60 22
65 29 30 32 75 45 75 21z m207 -71 c57 -31 83 -53 83 -68 0 -6 -5 -28 -11 -48
-12 -45 -34 -52 -26 -9 9 42 -14 59 -47 34 -13 -10 -32 -29 -41 -43 -16 -25
-16 -25 -11 18 4 27 2 42 -5 42 -6 0 -9 6 -6 13 2 6 -5 22 -17 35 -21 23 -21
24 -2 38 26 19 27 18 83 -12z m248 -175 c40 -22 65 -46 65 -61 0 -4 -6 -5 -14
-2 -10 4 -16 -3 -18 -22 -3 -25 -5 -26 -18 -12 -27 27 -78 49 -65 28 13 -20
-7 -32 -25 -15 -10 9 -23 14 -29 11 -5 -4 -15 3 -21 15 -13 24 -24 18 -25 -14
-4 -71 -5 -74 -27 -72 -16 1 -25 11 -32 33 -10 37 -26 43 -26 10 0 -21 0 -21
-15 -2 -13 18 -14 17 -15 -17 0 -47 -26 -134 -45 -149 -12 -10 -15 -10 -16 1
-3 31 -17 -50 -18 -103 -1 -68 26 -147 68 -198 l30 -35 11 30 c7 17 14 46 16
65 8 88 16 118 30 113 8 -3 14 1 14 9 0 18 23 68 32 68 6 0 48 66 48 76 0 3
-6 2 -12 -1 -7 -4 -5 0 4 8 10 8 14 18 10 22 -4 5 -1 5 6 1 6 -4 12 -16 12
-27 0 -18 2 -19 15 -5 8 8 15 20 15 26 0 7 7 10 15 7 8 -4 17 -1 21 5 4 7 9 6
15 -3 7 -12 9 -12 9 0 0 10 3 11 13 3 16 -14 59 -12 69 3 5 6 8 6 8 -2 0 -7 8
-13 18 -13 11 0 58 -36 106 -80 49 -44 92 -80 97 -80 12 0 98 -86 135 -136 16
-21 40 -51 52 -66 60 -68 122 -169 117 -191 -9 -41 41 -77 107 -77 21 0 39
-10 59 -31 16 -18 27 -34 24 -37 -2 -3 -14 7 -26 21 -11 15 -25 27 -30 27 -14
0 -11 -26 6 -40 8 -7 20 -30 25 -51 6 -22 15 -39 21 -39 6 0 8 -3 6 -7 -2 -5
4 -21 14 -38 39 -63 50 -87 45 -93 -3 -3 -14 4 -23 15 -39 43 -60 -10 -23 -57
11 -14 20 -36 20 -49 l0 -24 -23 21 c-34 32 -40 27 -19 -15 21 -43 28 -118 12
-128 -5 -3 -10 1 -10 9 0 8 -4 18 -10 21 -6 4 -7 -1 -3 -12 7 -21 -99 92 -109
116 -4 9 -7 38 -7 64 -1 26 -7 63 -15 81 -15 36 -94 126 -139 158 l-29 21 16
-32 c9 -17 21 -31 26 -31 5 0 23 -21 41 -46 l31 -46 -28 16 c-16 8 -38 29 -49
46 -11 17 -30 37 -42 45 -20 14 -20 13 4 -30 30 -54 44 -136 19 -116 -8 7 -18
21 -21 32 -4 10 -16 21 -28 24 -12 4 -48 42 -82 88 -33 45 -67 89 -75 97 -8 8
-30 35 -49 58 -27 35 -38 42 -57 38 -16 -4 -27 0 -37 14 -16 22 -29 17 -20 -8
5 -14 2 -13 -17 3 -21 19 -21 16 8 -40 17 -33 34 -79 37 -102 4 -23 13 -44 21
-47 8 -3 28 -34 44 -69 34 -74 66 -117 86 -117 8 0 14 -7 14 -17 0 -9 3 -14 6
-10 10 10 44 -32 38 -47 -3 -9 4 -30 17 -47 21 -30 21 -32 3 -25 -34 15 -62
18 -67 9 -4 -6 5 -30 19 -54 39 -69 61 -121 69 -159 l6 -35 -20 25 c-11 14
-32 48 -45 75 -37 73 -80 115 -207 198 -75 48 -93 77 -95 154 -3 72 -9 87 -36
80 -24 -7 -74 58 -88 117 -6 23 -15 50 -20 61 -8 16 -10 13 -7 -16 2 -27 -1
-35 -10 -32 -11 4 -11 -1 -3 -22 15 -39 12 -41 -12 -9 -36 48 -41 51 -34 22 4
-17 2 -28 -4 -28 -5 0 -10 -10 -10 -22 -1 -22 -1 -23 -15 -4 -24 32 -19 -3 9
-60 14 -27 29 -66 34 -86 9 -31 8 -36 -5 -31 -13 5 -15 0 -9 -28 4 -19 10 -51
13 -71 3 -21 9 -38 14 -38 5 0 9 -9 9 -19 0 -11 4 -22 10 -26 5 -3 7 -12 4
-19 -6 -17 20 -72 49 -103 15 -17 17 -23 6 -23 -19 1 -63 38 -94 80 -14 18
-25 29 -25 22 0 -25 -16 -11 -29 26 -8 20 -25 60 -38 87 -26 55 -66 226 -57
249 3 8 1 17 -5 21 -20 12 -12 27 11 20 21 -7 21 -6 14 72 -7 85 -31 184 -48
194 -6 4 -10 20 -10 35 0 16 -12 49 -27 74 -39 63 -73 236 -61 307 11 66 36
106 61 98 14 -5 19 -1 19 14 0 12 7 21 15 21 8 0 15 9 15 20 0 24 44 55 66 46
12 -4 15 -2 10 9 -4 10 3 17 22 21 15 4 36 13 47 20 30 21 51 17 74 -13 15
-20 19 -22 14 -8 -3 11 -11 26 -16 33 -15 20 30 9 78 -19z m-782 -117 c12 -11
17 -30 17 -71 0 -49 4 -61 30 -89 17 -18 30 -35 30 -38 0 -5 -49 25 -66 41 -6
5 -25 22 -43 38 -28 25 -31 32 -31 88 0 58 1 60 23 53 12 -3 30 -13 40 -22z
m1639 -85 c7 -7 28 -23 45 -35 18 -13 45 -44 59 -70 15 -26 44 -72 64 -102 49
-72 92 -151 86 -157 -2 -3 -25 26 -50 64 -56 83 -62 89 -159 181 -65 60 -83
72 -111 72 -43 0 -54 15 -30 41 20 22 76 26 96 6z m2080 -18 c58 -13 155 -58
205 -96 18 -14 37 -21 44 -17 8 4 9 3 5 -4 -4 -7 -2 -12 5 -12 7 0 5 -6 -5
-13 -17 -12 -13 -17 47 -52 36 -21 64 -42 61 -47 -3 -5 -2 -8 3 -7 26 5 42 -4
47 -26 4 -14 11 -25 16 -25 14 0 12 18 -2 23 -7 2 -10 8 -5 13 4 4 15 0 24 -9
13 -13 14 -19 4 -31 -9 -11 -9 -15 1 -19 7 -2 10 -7 7 -11 -4 -4 -14 0 -22 9
-9 8 -20 15 -25 15 -6 0 -12 6 -15 13 -3 9 -8 9 -21 -2 -15 -13 -20 -11 -44
13 -27 28 -27 28 -3 21 15 -5 21 -3 17 3 -3 5 -23 12 -43 15 -21 3 -50 9 -65
12 -23 6 -28 4 -28 -10 0 -14 -7 -16 -30 -13 -16 3 -30 3 -30 2 0 -6 90 -53
124 -64 74 -24 214 -120 319 -219 41 -38 89 -100 69 -87 -18 11 -15 -4 6 -28
l17 -21 -25 20 c-14 11 -56 49 -95 85 -125 118 -189 162 -307 214 -62 27 -82
21 -23 -7 20 -10 35 -24 35 -34 0 -11 25 -33 65 -57 36 -21 65 -40 65 -42 0
-5 -39 16 -95 51 -64 40 -138 75 -160 75 -12 0 -26 5 -32 11 -7 7 -34 9 -74 5
-35 -3 -75 -6 -89 -6 -14 0 -35 -6 -48 -12 -29 -15 -35 -8 -65 72 l-25 65 24
18 c21 15 24 26 24 76 0 32 7 75 15 95 9 20 13 41 10 46 -8 13 52 13 117 -1z
m-3864 -75 c0 -20 8 -45 19 -57 10 -12 24 -33 31 -45 12 -21 11 -23 -3 -20
-21 4 -68 113 -60 139 9 28 13 23 13 -17z m1612 -64 c0 -5 9 -12 21 -15 29
-10 186 -144 234 -200 44 -52 144 -186 308 -411 137 -189 192 -260 275 -355
83 -94 134 -157 146 -178 5 -9 12 -18 16 -21 3 -3 28 -36 55 -75 27 -38 52
-72 55 -75 3 -3 21 -31 40 -62 19 -32 38 -58 42 -58 4 0 8 -7 8 -15 0 -8 5
-15 10 -15 6 0 10 -4 10 -9 0 -14 75 -125 150 -221 36 -47 77 -103 90 -125 13
-22 27 -42 30 -45 14 -13 29 -60 20 -65 -6 -4 -10 -1 -10 5 0 6 -4 9 -9 5 -5
-3 -12 3 -15 13 -4 10 -15 27 -25 39 -10 11 -30 37 -43 59 -14 21 -40 58 -59
81 -19 23 -65 83 -104 134 -137 181 -186 240 -195 234 -5 -3 -6 -13 -3 -23 8
-23 214 -335 227 -344 6 -4 8 -8 4 -8 -4 0 13 -30 38 -67 41 -62 118 -211 174
-338 12 -27 30 -59 40 -70 10 -11 23 -32 29 -47 16 -42 -8 -36 -39 8 -45 67
-179 194 -203 194 -18 0 5 -56 54 -133 27 -43 49 -79 49 -81 0 -2 29 -51 64
-110 36 -59 68 -121 71 -137 4 -16 10 -29 14 -29 8 0 34 -76 45 -135 l7 -30
-23 36 c-13 20 -45 72 -71 115 -157 257 -192 308 -307 449 -52 63 -253 332
-345 460 -38 54 -104 139 -145 188 -41 49 -87 106 -101 126 -78 108 -193 337
-187 373 3 22 5 21 23 -12 l20 -35 3 29 c2 16 -1 48 -7 72 -6 24 -11 54 -11
68 0 18 -17 39 -60 77 -33 28 -74 75 -92 103 -18 28 -88 105 -156 171 -137
133 -229 235 -195 216 12 -6 25 -16 28 -21 4 -6 32 -23 63 -39 77 -39 147
-104 324 -300 83 -91 195 -215 251 -274 55 -60 113 -125 128 -145 34 -47 109
-119 109 -106 0 6 -11 24 -25 40 -14 16 -25 35 -25 42 0 6 -4 12 -10 12 -5 0
-10 5 -10 10 0 27 -230 313 -290 360 -17 14 -89 102 -159 195 -71 94 -150 191
-177 216 -27 26 -63 59 -80 75 -16 16 -70 73 -118 127 -80 89 -85 98 -66 105
25 9 90 3 90 -8z m2575 -40 c3 -6 -1 -7 -9 -4 -18 7 -21 14 -7 14 6 0 13 -4
16 -10z m-3836 -36 c29 -6 37 -16 69 -83 21 -42 47 -90 59 -107 34 -47 45 -82
53 -157 5 -50 13 -73 29 -88 11 -11 21 -27 21 -35 0 -11 6 -13 20 -9 16 5 20
2 20 -19 0 -14 -4 -26 -10 -26 -5 0 -10 -7 -10 -15 0 -23 -15 -18 -48 16 -37
37 -62 105 -62 165 0 24 -4 46 -10 49 -5 3 -10 0 -10 -7 -1 -7 -11 6 -23 29
-12 23 -34 55 -49 72 -16 17 -28 34 -28 39 0 4 -16 32 -36 62 -45 70 -65 116
-57 136 5 13 7 13 22 0 10 -9 32 -19 50 -22z m1522 -16 c75 -60 91 -79 162
-198 82 -138 107 -191 112 -233 2 -19 -12 -10 -17 11 -2 7 -15 27 -30 45 -25
30 -135 169 -188 238 -14 18 -29 38 -35 44 -5 6 -23 26 -40 45 -16 18 -23 29
-15 25 8 -5 5 4 -8 19 -47 61 -15 62 59 4z m-291 -65 l55 -57 -55 49 c-50 45
-68 65 -58 65 2 0 28 -26 58 -57z m2698 -44 c13 -21 13 -21 -17 -3 -16 10 -28
21 -25 25 7 12 28 1 42 -22z m-4189 -88 c-12 -38 -26 -68 -31 -65 -11 7 -4 34
24 96 30 68 34 52 7 -31z m3956 12 c30 -8 35 -24 20 -54 -17 -32 -7 -47 12
-19 8 11 19 17 25 14 6 -4 8 -2 5 3 -4 6 3 13 14 16 15 4 36 -5 67 -29 25 -19
50 -34 55 -34 7 0 6 -5 -2 -12 -10 -11 -14 -9 -22 5 -7 12 -14 15 -22 8 -7 -5
-16 -9 -21 -8 -16 3 -30 -29 -21 -49 5 -11 9 -23 9 -28 2 -18 24 -17 38 1 7
11 27 28 44 40 l30 22 35 -26 c64 -49 101 -88 138 -143 l36 -56 3 -131 c4
-150 -7 -205 -44 -230 -23 -15 -33 -15 -83 -4 -31 6 -85 17 -121 23 -80 13
-114 30 -177 89 -98 92 -108 160 -35 241 35 38 26 62 -23 66 -46 4 -68 19 -60
40 3 8 0 21 -6 28 -9 11 -8 14 2 14 11 0 11 2 -1 10 -9 6 -18 6 -24 0 -19 -19
-46 -10 -52 18 -4 15 -12 30 -18 34 -8 6 -8 8 0 8 6 0 14 17 17 38 8 44 37 68
67 52 38 -21 162 -176 193 -242 18 -38 35 -68 39 -68 25 0 -77 184 -132 239
-28 28 -48 56 -45 61 4 6 -3 22 -14 36 -12 15 -21 31 -21 35 0 9 54 4 95 -8z
m-2436 -174 c13 -11 21 -22 19 -25 -3 -3 -19 6 -34 20 -34 30 -20 35 15 5z
m-1234 -29 c5 -17 4 -22 -3 -15 -5 6 -13 21 -17 35 -5 17 -4 22 3 15 5 -5 13
-21 17 -35z m-34 -44 c11 -14 22 -43 25 -63 l5 -38 -24 48 c-14 27 -37 61 -51
76 -14 15 -26 31 -26 35 0 11 47 -28 71 -58z m-131 10 c0 -5 -7 -3 -15 4 -8 7
-15 20 -15 28 0 13 3 12 15 -4 8 -10 15 -23 15 -28z m4386 -143 c23 -21 48
-53 42 -53 -2 0 -19 16 -38 35 -35 36 -38 49 -4 18z m-706 -53 c5 0 10 -6 10
-14 0 -8 4 -16 8 -18 5 -1 21 -29 35 -60 26 -55 36 -87 18 -59 -7 10 -9 7 -8
-12 2 -21 5 -23 16 -14 11 9 13 9 8 0 -4 -6 -1 -17 6 -24 7 -7 11 -25 9 -41
-4 -28 -5 -28 -28 19 -14 26 -30 53 -37 58 -14 11 -68 119 -66 132 4 23 -2 43
-11 38 -14 -9 -12 9 2 23 10 10 14 8 20 -8 4 -11 12 -20 18 -20z m-2921 -151
c24 -45 22 -65 -2 -27 -16 25 -31 68 -24 68 3 0 15 -19 26 -41z m581 -83 c0
-4 11 -5 26 -2 20 5 24 3 22 -11 -4 -24 -19 -34 -40 -27 -19 6 -25 -11 -8 -21
13 -8 13 -25 1 -25 -5 0 -13 9 -16 20 -4 11 -10 18 -15 15 -7 -5 7 -75 25
-118 6 -13 3 -16 -9 -11 -10 4 -16 1 -16 -7 -1 -24 -27 34 -35 76 -3 21 -13
52 -21 67 -18 35 -18 48 1 48 8 0 15 4 15 9 0 5 9 11 21 14 13 4 19 10 14 19
-4 7 3 2 14 -12 11 -14 21 -29 21 -34z m-974 -17 c13 -13 29 -39 34 -59 5 -19
25 -60 43 -90 19 -30 49 -80 67 -110 18 -30 46 -74 62 -97 15 -23 28 -44 28
-47 0 -3 10 -17 22 -31 14 -16 28 -23 40 -19 10 3 18 0 18 -6 0 -6 -4 -8 -10
-5 -5 3 -10 1 -10 -5 0 -7 8 -9 19 -5 10 3 24 -1 31 -10 7 -8 19 -15 26 -15 8
0 11 -6 8 -15 -4 -10 -2 -13 8 -10 7 3 23 -3 34 -13 27 -25 61 -43 77 -40 52
10 197 -49 197 -79 0 -7 5 -13 10 -13 6 0 10 -9 10 -21 0 -22 34 -72 43 -63 2
3 -9 32 -25 65 -16 32 -28 66 -26 75 4 21 70 45 89 33 8 -5 33 -6 55 -3 38 5
49 1 115 -42 41 -27 104 -78 140 -114 53 -52 71 -79 92 -135 37 -96 395 -805
418 -825 3 -3 16 -23 29 -45 25 -41 193 -234 216 -248 22 -13 118 -151 119
-172 2 -20 -29 -56 -64 -74 -43 -23 -95 19 -186 154 -26 39 -58 82 -71 97 -13
15 -24 32 -24 37 0 5 -4 11 -8 13 -5 2 -27 30 -49 63 -89 132 -103 110 -30
-48 15 -32 27 -60 27 -63 0 -2 25 -57 55 -121 31 -64 54 -124 52 -132 -1 -9
-22 22 -44 69 -23 47 -73 137 -110 200 -134 223 -158 267 -255 460 -98 194
-198 374 -205 367 -2 -2 8 -37 21 -78 42 -126 77 -278 75 -327 -1 -26 2 -75 6
-109 5 -38 4 -63 -1 -63 -14 0 -70 119 -103 218 -16 48 -39 112 -51 142 -26
64 -47 119 -128 330 -55 145 -86 214 -112 250 -8 11 -10 4 -6 -29 3 -25 10
-47 14 -50 12 -9 49 -91 95 -211 22 -58 53 -139 69 -180 87 -220 144 -411 122
-410 -17 1 -89 127 -134 235 -5 11 -15 36 -24 55 -8 19 -30 76 -49 126 -43
111 -74 174 -87 174 -6 0 -10 -2 -10 -5 0 -3 34 -139 76 -302 72 -284 94 -416
69 -419 -14 -2 -35 72 -35 122 0 22 -4 44 -9 50 -5 5 -18 41 -29 79 -37 134
-94 310 -105 331 -7 11 -31 59 -55 105 -72 142 -75 137 -33 -71 62 -306 63
-312 52 -323 -8 -8 -11 -7 -11 3 0 20 -163 173 -252 236 -43 30 -80 59 -83 64
-5 8 -68 28 -137 44 -43 10 -35 -14 19 -59 136 -116 179 -178 167 -241 -4 -22
-2 -40 6 -49 7 -9 10 -18 7 -22 -4 -3 -1 -15 4 -26 10 -18 9 -19 -15 -13 -15
4 -70 28 -124 53 -53 26 -109 47 -124 48 -25 2 -28 -2 -28 -29 0 -20 8 -38 23
-50 65 -55 113 -104 109 -115 -2 -6 2 -11 9 -11 7 0 10 -2 7 -5 -3 -3 -43 13
-89 35 -99 49 -339 145 -389 155 -100 21 -143 84 -108 159 10 23 7 32 -20 77
-18 27 -32 53 -32 56 0 8 -61 127 -69 133 -3 3 -19 25 -35 50 -16 25 -42 59
-57 75 -72 77 -129 161 -129 190 0 19 204 421 239 470 19 28 38 52 41 55 3 3
35 43 72 90 74 95 100 121 143 145 42 23 129 14 161 -16z m1088 -18 c-2 -3
-12 3 -22 13 -16 17 -16 18 5 5 12 -7 20 -15 17 -18z m-604 -42 c14 -22 37
-54 52 -71 23 -27 48 -93 48 -129 0 -27 -18 8 -35 66 -16 54 -18 58 -26 36 -5
-13 -7 -40 -3 -60 5 -29 4 -34 -6 -24 -7 6 -16 46 -20 88 -4 42 -14 83 -22 93
-22 26 -30 42 -21 42 5 0 20 -18 33 -41z m-250 -94 c0 -5 -5 -3 -10 5 -5 8
-10 20 -10 25 0 6 5 3 10 -5 5 -8 10 -19 10 -25z m207 -107 c-3 -8 -6 -5 -6 6
-1 11 2 17 5 13 3 -3 4 -12 1 -19z m3536 -119 c54 -47 77 -102 57 -138 -8 -16
-18 -21 -32 -17 -12 2 -34 -2 -49 -10 -49 -25 -62 -19 -55 24 17 109 18 122 7
136 -13 16 -4 46 14 46 7 0 33 -18 58 -41z m-2388 -202 c21 -65 26 -90 17 -99
-16 -16 -41 7 -63 60 -22 50 -24 94 -7 122 16 26 20 21 53 -83z m-249 -12 c26
-53 44 -99 40 -103 -4 -4 -14 2 -22 13 -8 11 -17 19 -19 18 -3 -2 -11 -3 -17
-3 -10 0 -9 3 1 9 10 6 10 10 1 16 -7 4 -9 18 -5 36 4 16 3 29 -2 29 -8 0 -33
56 -33 73 0 21 15 -3 56 -88z m2521 -227 c1 -11 -5 -30 -13 -42 -7 -11 -14
-16 -14 -11 0 6 -3 21 -7 34 -4 16 -2 22 4 18 6 -4 13 0 17 8 8 21 11 19 13
-7z m-2207 -67 c0 -4 19 -16 43 -25 54 -20 205 -139 217 -170 5 -13 5 -54 1
-92 -6 -57 -9 -64 -15 -41 -12 41 -26 33 -26 -15 -1 -34 -3 -39 -11 -25 -14
25 -29 21 -29 -7 0 -28 -15 -43 -23 -24 -4 9 -8 6 -12 -7 -3 -11 -29 -31 -58
-45 -28 -14 -60 -36 -71 -48 -12 -13 -34 -31 -50 -39 -28 -15 -31 -14 -48 7
-10 12 -18 31 -18 41 0 31 -60 209 -70 209 -6 0 -10 12 -10 26 0 14 -5 34 -10
45 -7 13 -7 19 0 19 5 0 10 9 10 20 0 17 7 20 38 20 20 -1 55 -7 77 -15 21 -8
41 -12 43 -10 2 2 -6 6 -17 10 -12 3 -21 13 -21 21 0 11 6 13 20 9 24 -8 24
-6 5 31 -17 34 -19 53 -5 88 9 24 40 37 40 17z m309 -84 c16 -25 9 -30 -20
-17 -30 14 -62 57 -54 70 7 11 55 -23 74 -53z m15 -53 c3 -8 2 -12 -4 -9 -6 3
-10 10 -10 16 0 14 7 11 14 -7z m33 -56 c-3 -7 -5 -2 -5 12 0 14 2 19 5 13 2
-7 2 -19 0 -25z m-2495 -248 l16 -49 -44 6 c-26 3 -56 1 -73 -7 -53 -22 -55 0
-4 35 27 18 55 40 62 49 20 24 26 20 43 -34z m-365 4 c-3 -3 -12 -4 -19 -1 -8
3 -5 6 6 6 11 1 17 -2 13 -5z m2945 -11 c-12 -9 -37 -28 -55 -44 -17 -16 -40
-29 -50 -29 -10 0 -15 -4 -12 -10 3 -5 1 -10 -4 -10 -33 0 9 40 84 82 55 30
73 36 37 11z m-103 -199 c-13 -14 -33 -31 -44 -36 -20 -11 -20 -11 0 13 26 32
59 59 64 53 2 -2 -6 -16 -20 -30z m-148 -11 c-17 -34 -61 -74 -72 -67 -7 4 4
21 27 45 40 41 61 51 45 22z m199 13 c0 -2 -7 -7 -16 -10 -8 -3 -12 -2 -9 4 6
10 25 14 25 6z m-48 -43 c-36 -36 -56 -46 -28 -15 17 18 33 32 38 32 4 0 0 -8
-10 -17z m-2399 -42 c16 -25 27 -56 29 -85 2 -25 7 -46 11 -46 4 0 15 -17 23
-37 18 -41 14 -46 -48 -79 -32 -16 -35 -9 -12 24 21 30 12 39 -18 18 -35 -25
-44 -19 -14 9 14 13 26 28 26 34 0 5 3 16 6 25 5 13 1 14 -28 6 -18 -6 -34
-10 -36 -10 -2 0 9 16 24 35 34 45 25 45 -25 0 l-38 -35 3 33 c3 21 16 43 39
65 20 18 29 32 20 32 -7 0 -17 -4 -20 -10 -8 -13 -25 -13 -25 -1 0 5 4 21 10
35 14 38 43 33 73 -13z m2566 -127 c-19 -19 -26 -21 -26 -10 0 9 6 16 14 16 7
0 16 7 20 15 3 9 8 13 11 10 3 -3 -5 -17 -19 -31z m12 -27 c-6 -8 -8 -16 -5
-19 3 -3 -12 -19 -33 -35 -66 -51 -70 -48 -13 10 51 53 77 74 51 44z m-61 -11
c0 -2 -7 -7 -16 -10 -8 -3 -12 -2 -9 4 6 10 25 14 25 6z m350 -121 c0 -2 -33
-26 -72 -53 -97 -64 -99 -65 -93 -50 7 16 77 67 125 90 40 20 40 20 40 13z
m-2756 -127 c-5 -8 -2 -9 9 -5 30 11 65 -70 38 -87 -5 -3 -7 -14 -4 -24 5 -21
-12 -38 -48 -47 -24 -6 -27 -3 -35 32 -5 21 -9 45 -9 53 0 8 -4 21 -8 27 -6 9
-3 11 9 6 11 -4 15 -2 12 7 -2 8 3 22 11 31 18 20 36 25 25 7z"/>
<path d="M1375 3526 c4 -26 2 -41 -6 -46 -9 -6 -9 -18 -2 -48 9 -36 9 -39 -8
-35 -23 6 -23 2 -3 -62 10 -32 13 -68 10 -100 -7 -55 31 -216 52 -223 14 -4
14 1 2 93 -5 41 -5 76 0 85 5 8 10 11 10 5 2 -27 29 45 30 77 0 45 8 51 43 33
24 -12 28 -12 37 3 5 9 10 13 10 8 0 -5 7 -3 15 4 12 10 21 8 49 -14 19 -14
39 -26 45 -26 6 0 11 -5 11 -12 0 -6 3 -8 6 -5 4 4 -1 18 -10 32 -25 38 -11
30 51 -27 55 -53 58 -45 9 21 -14 19 -26 42 -26 50 0 13 -2 13 -9 2 -5 -7 -10
-9 -12 -5 -6 15 -96 84 -109 84 -6 0 -8 -4 -5 -10 15 -24 -14 -6 -55 35 -25
25 -50 45 -57 45 -7 0 -19 12 -27 28 -8 15 -15 21 -16 13 0 -8 -8 -4 -21 10
l-20 24 6 -39z"/>
<path d="M1713 3373 c-20 -7 -3 -35 62 -103 34 -36 72 -80 85 -98 12 -18 24
-31 27 -29 7 8 -39 76 -95 142 -28 32 -48 63 -45 69 3 5 1 6 -5 2 -6 -3 -12 0
-14 7 -2 8 -8 12 -15 10z"/>
<path d="M1999 3012 c6 -12 41 -51 76 -87 35 -35 78 -83 95 -106 29 -40 30
-41 30 -15 0 19 -14 40 -51 74 -28 26 -76 72 -106 102 -31 30 -51 45 -44 32z"/>
<path d="M4548 3555 c12 -9 19 -21 16 -27 -4 -5 4 -5 16 2 25 13 19 21 -30 35
l-25 7 23 -17z"/>
<path d="M4460 3531 c0 -6 7 -11 16 -11 9 0 31 -7 50 -16 19 -9 37 -14 41 -10
3 3 -9 12 -28 20 -58 24 -79 28 -79 17z"/>
<path d="M4635 3450 c3 -5 8 -10 11 -10 2 0 4 5 4 10 0 6 -5 10 -11 10 -5 0
-7 -4 -4 -10z"/>
<path d="M4485 3387 c28 -8 61 -17 75 -21 l25 -8 -22 17 c-13 9 -46 18 -75 20
l-53 5 50 -13z"/>
<path d="M4775 2877 c-4 -10 -5 -21 -1 -24 10 -10 18 4 13 24 -4 17 -4 17 -12
0z"/>
<path d="M4695 2809 c-4 -6 -5 -13 -2 -16 8 -7 47 7 47 18 0 13 -37 11 -45 -2z"/>
<path d="M4828 2746 c-37 -34 -74 -94 -64 -104 3 -3 18 0 32 7 15 6 35 9 46 5
22 -7 68 30 68 54 0 12 -6 10 -23 -6 -28 -26 -39 -28 -35 -5 4 24 38 63 55 63
7 0 13 5 13 10 0 23 -56 9 -92 -24z"/>
<path d="M1530 1490 c0 -11 5 -20 10 -20 6 0 10 9 10 20 0 11 -4 20 -10 20 -5
0 -10 -9 -10 -20z"/>
<path d="M3496 5426 c3 -8 -2 -26 -11 -39 -11 -17 -13 -27 -6 -32 7 -3 11 2
11 14 0 11 4 22 9 25 16 10 20 46 5 46 -7 0 -11 -6 -8 -14z"/>
<path d="M4844 5424 c4 -9 -9 -30 -34 -56 -21 -23 -42 -54 -45 -69 -4 -15 -15
-31 -26 -34 -12 -4 -19 -15 -19 -31 0 -14 -7 -27 -15 -31 -11 -4 -15 -17 -13
-44 1 -22 6 -39 10 -39 5 0 0 -17 -10 -37 -10 -21 -17 -46 -14 -55 2 -10 -1
-18 -6 -18 -5 0 -12 -11 -14 -25 -5 -23 -2 -25 28 -25 21 0 34 5 34 13 0 7 14
21 31 31 32 19 54 39 178 156 38 36 79 72 92 80 12 8 31 23 41 33 10 9 20 17
24 17 5 0 -43 -68 -60 -85 -6 -5 -38 -45 -70 -87 -32 -43 -63 -78 -67 -78 -5
0 -9 -5 -9 -11 0 -10 -35 -57 -75 -100 -9 -9 -13 -24 -9 -33 4 -10 1 -16 -9
-16 -9 0 -24 -11 -34 -25 -10 -14 -36 -50 -58 -79 -22 -30 -58 -79 -80 -110
-22 -31 -43 -56 -46 -56 -4 0 -13 -16 -19 -35 -6 -19 -22 -44 -36 -57 -14 -13
-31 -36 -38 -53 -8 -16 -28 -44 -44 -61 -16 -17 -39 -48 -51 -70 -12 -21 -28
-49 -37 -62 -16 -21 -16 -22 2 -16 11 4 31 16 46 26 14 10 31 18 37 18 6 0 11
3 11 8 0 4 27 20 60 37 33 16 60 35 60 42 0 7 8 13 17 13 9 0 24 6 32 13 9 8
37 21 64 31 26 10 47 22 47 27 0 5 11 9 25 9 14 0 25 5 25 10 0 6 34 27 75 46
41 19 77 39 81 45 3 6 25 19 48 29 23 10 49 24 57 33 9 8 35 25 59 37 51 26
164 101 168 112 2 5 11 8 19 8 14 0 -49 -73 -116 -133 -53 -48 -121 -116 -121
-121 0 -8 -61 -66 -71 -66 -5 0 -9 -4 -9 -9 0 -4 -26 -35 -57 -68 -66 -69
-103 -111 -103 -118 0 -10 -37 -52 -97 -111 -35 -34 -63 -69 -63 -78 0 -9 -7
-16 -15 -16 -9 0 -18 -7 -21 -15 -3 -8 -14 -17 -25 -20 -10 -4 -19 -15 -19
-26 0 -18 4 -18 58 11 31 16 67 30 80 30 12 0 22 5 22 10 0 6 9 10 19 10 11 0
23 4 26 10 3 5 32 17 63 26 31 9 61 23 65 30 4 8 18 14 30 14 12 0 30 7 41 15
10 8 38 17 62 21 23 3 51 15 60 25 19 21 64 26 64 6 0 -14 -23 -36 -67 -63
-15 -10 -41 -31 -58 -47 -16 -16 -55 -45 -85 -65 -69 -46 -95 -70 -87 -79 4
-3 23 1 42 10 20 9 42 17 50 17 8 0 15 5 15 10 0 6 8 10 19 10 10 0 24 7 31
15 7 9 19 14 26 11 6 -2 28 4 48 15 20 10 44 19 54 19 10 0 22 3 25 6 14 15
123 56 145 55 12 0 22 3 22 7 0 5 25 16 55 26 l55 17 0 625 0 624 -114 0 c-82
0 -116 -4 -119 -12 -4 -10 -6 -10 -6 0 -1 9 -44 12 -182 12 -160 0 -180 -2
-175 -16z m272 -111 c-10 -10 -19 5 -10 18 6 11 8 11 12 0 2 -7 1 -15 -2 -18z
m210 -490 c-10 -10 -19 5 -10 18 6 11 8 11 12 0 2 -7 1 -15 -2 -18z m-129
-579 c-3 -3 -12 -4 -19 -1 -8 3 -5 6 6 6 11 1 17 -2 13 -5z"/>
<path d="M3260 5269 c-12 -22 -20 -47 -18 -55 2 -8 13 10 25 41 25 65 22 72
-7 14z"/>
<path d="M0 4220 c0 -66 10 -74 55 -44 28 19 32 39 9 48 -8 3 -12 10 -9 16 4
6 -5 10 -20 10 -20 0 -26 4 -21 15 3 8 1 15 -4 15 -6 0 -10 -27 -10 -60z"/>
<path d="M0 4128 c0 -16 3 -18 13 -9 8 6 17 7 22 3 4 -4 6 -1 3 7 -7 23 -38
22 -38 -1z"/>
<path d="M5390 4092 c-14 -9 -27 -20 -30 -23 -3 -4 -29 -19 -58 -35 -30 -16
-58 -37 -63 -46 -5 -10 -16 -18 -23 -18 -8 0 -25 -12 -38 -28 -13 -15 -31 -26
-40 -24 -14 3 -18 -3 -18 -23 0 -22 3 -26 18 -20 9 4 33 9 52 10 43 4 62 8 78
18 7 5 12 4 12 -2 0 -17 66 -13 80 4 7 8 28 15 46 15 l34 0 0 95 c0 102 -4
108 -50 77z m-196 -180 c3 -5 -1 -9 -9 -9 -8 0 -12 4 -9 9 3 4 7 8 9 8 2 0 6
-4 9 -8z"/>
<path d="M4200 4043 c-36 -13 -121 -56 -126 -65 -3 -5 18 3 47 18 30 15 74 33
99 40 29 8 36 12 20 12 -14 0 -32 -2 -40 -5z"/>
<path d="M3993 3923 c-34 -26 -60 -49 -58 -51 2 -3 28 15 57 39 71 57 73 59
67 59 -3 0 -33 -21 -66 -47z"/>
<path d="M5432 2237 c-1 -16 -7 -37 -12 -47 -7 -13 -7 -21 0 -25 15 -9 22 17
17 61 -3 29 -4 31 -5 11z"/>
<path d="M0 2100 c0 -33 4 -60 9 -60 28 0 100 41 106 60 4 12 5 22 3 23 -8 5
-106 37 -112 37 -3 0 -6 -27 -6 -60z"/>
<path d="M5236 1763 c9 -27 18 -56 21 -65 3 -10 9 -18 14 -18 5 0 4 11 -1 24
-4 13 -14 42 -20 65 -6 22 -15 41 -20 41 -5 0 -2 -21 6 -47z"/>
<path d="M5136 1781 c-24 -27 -44 -87 -38 -117 6 -30 12 -25 33 29 9 23 21 43
26 44 6 2 17 -20 25 -49 27 -97 43 -26 17 75 -11 42 -35 49 -63 18z"/>
<path d="M278 733 c6 -2 18 -2 25 0 6 3 1 5 -13 5 -14 0 -19 -2 -12 -5z"/>
<path d="M670 47 c0 -23 10 -25 41 -10 38 19 37 23 -6 23 -22 0 -35 -5 -35
-13z"/>
<path d="M810 10 c-11 -7 -4 -10 25 -10 22 0 47 5 55 10 11 7 4 10 -25 10 -22
0 -47 -5 -55 -10z"/>
</g>
</svg>
